# xmcd
#
# Track frame offsets:
# 150
# 16556
# 37391
# 57623
# 81582
# 100384
# 124164
# 155275
# 178691
# 219260
# 243391
#
# Disc length: 3778 seconds
#
# Revision: 1
# Processed by: cddbd v1.5.2PL0 Copyright (c) Steve Scherf et al.
# Submitted via: plextools 2.35
#
DISCID=960ec00b
DTITLE=Popa Chubby - How'd a White Boy
DYEAR=2001
DGENRE=Blues
TTITLE0=Popa Chubby - Daddy Played Guitar and Mama Was a Disco Queen
TTITLE1=Popa Chubby - Black Hearted Woman
TTITLE2=Popa Chubby - Carrying on The Torch of The Blues
TTITLE3=Popa Chubby - Time is Killing Me
TTITLE4=Popa Chubby - Saving My Love Up For My Lover
TTITLE5=Popa Chubby - No Comfort
TTITLE6=Popa Chubby - It's a Sad Day In New York City When There Ain't No Room For The Blues
TTITLE7=Popa Chubby - Goin' Down To Willie's
TTITLE8=Popa Chubby - Since I Lost My Leg
TTITLE9=Popa Chubby - How'd A White Boy Get The Blues?
TTITLE10=Popa Chubby - Enhanced CD track
EXTD=YEAR: 2001 ID3G: 0
EXTT0=
EXTT1=
EXTT2=
EXTT3=
EXTT4=
EXTT5=
EXTT6=
EXTT7=
EXTT8=
EXTT9=
EXTT10=
PLAYORDER=
